<svg xmlns="http://www.w3.org/2000/svg" width="92.848" height="85" viewBox="0 0 92.848 85">
  <g id="Group_1037" data-name="Group 1037" transform="translate(-999 -1994)">
    <g id="Ellipse_27" data-name="Ellipse 27" transform="translate(1014 2005)" fill="none" stroke="#4ff570" stroke-width="5">
      <circle cx="37" cy="37" r="37" stroke="none"/>
      <circle cx="37" cy="37" r="34.5" fill="none"/>
    </g>
    <circle id="Ellipse_31" data-name="Ellipse 31" cx="33.5" cy="33.5" r="33.5" transform="translate(999 1994)" fill="#06054b"/>
    <g id="Group_797" data-name="Group 797" transform="translate(1010.152 1971.604)">
      <g id="Group_793" data-name="Group 793" transform="translate(20.925 53.656)">
        <path id="Path_706" data-name="Path 706" d="M386.285,236.937l-6.418-35.361a1.2,1.2,0,0,0-.6-.833l-16.154-8.985a1.2,1.2,0,0,0-.676-.145l2.939,37.913-.1.044,19.333,8.673a1.2,1.2,0,0,0,1.671-1.307Z" transform="translate(-325.534 -191.608)" fill="#44c868"/>
        <path id="Path_707" data-name="Path 707" d="M151.065,200.346l-16.522-8.605a1.2,1.2,0,0,0-.634-.131,1.237,1.237,0,0,1,.172,0l-2.939,37.913,19.432,8.718a1.2,1.2,0,0,0,.491.105h0Z" transform="translate(-131.142 -191.607)" fill="#44c868"/>
      </g>
      <g id="Group_794" data-name="Group 794" transform="translate(0 53.656)">
        <path id="Path_708" data-name="Path 708" d="M23.864,191.613a1.2,1.2,0,0,0-.676.145L7.034,200.744a1.2,1.2,0,0,0-.6.833L.019,236.937a1.2,1.2,0,0,0,1.671,1.307l19.228-8.626Z" transform="translate(0 -191.61)" fill="#4ce166"/>
        <path id="Path_709" data-name="Path 709" d="M272.984,191.628a1.2,1.2,0,0,0-.462.131L256,200.364v38h0a1.2,1.2,0,0,0,.491-.105l19.432-8.718Z" transform="translate(-215.152 -191.625)" fill="#4ce166"/>
      </g>
      <path id="Path_710" data-name="Path 710" d="M21.287,269.852l-1.3,7.183,19.306-10.2.448-5.782.074-.959Z" transform="translate(-16.794 -195.513)" fill="#ffdb56"/>
      <path id="Path_711" data-name="Path 711" d="M22.668,288.294l-.174,2.242-19.306,10.2L.019,318.195A1.2,1.2,0,0,0,1.69,319.5l19.228-8.626,1.75-22.581Z" transform="translate(0 -219.211)" fill="#a8eefc"/>
      <g id="Group_795" data-name="Group 795" transform="translate(22.495 57.767)">
        <path id="Path_712" data-name="Path 712" d="M159.335,262.647,141.5,260.1l-.523,6.741L159.33,294.71V284.575L148.378,267.33l10.957,1.31Z" transform="translate(-140.977 -253.279)" fill="#ffbb24"/>
        <path id="Path_713" data-name="Path 713" d="M380.376,221.686l-7.76-4.316-7.347,1.717.092,1.187.363,4.681Z" transform="translate(-329.48 -217.37)" fill="#ffbb24"/>
      </g>
      <path id="Path_714" data-name="Path 714" d="M274.567,242.4l-.7-8.975h0l-.411-5.3-17.43,7.651v5.993l11.386-4.951Z" transform="translate(-215.177 -168.645)" fill="#ffdb56"/>
      <path id="Path_715" data-name="Path 715" d="M391.058,298.532l-1.612-8.882L368.119,264.9l.652,8.405,21.871,26.363A1.2,1.2,0,0,0,391.058,298.532Z" transform="translate(-309.381 -199.548)" fill="#ffbb24"/>
      <path id="Path_716" data-name="Path 716" d="M168.134,27.465a16.785,16.785,0,0,0-16.773,16.759c0,5.716,2.714,11.854,8.067,18.241A57.327,57.327,0,0,0,167.4,70.3a1.2,1.2,0,0,0,1.468,0,57.338,57.338,0,0,0,7.973-7.835c5.353-6.388,8.067-12.525,8.067-18.241A16.786,16.786,0,0,0,168.134,27.465Zm6.212,16.759a6.212,6.212,0,1,1-6.212-6.207A6.209,6.209,0,0,1,174.346,44.224Z" transform="translate(-127.209)" fill="#ff4a4a"/>
      <path id="Path_717" data-name="Path 717" d="M245.085,27.465a16.868,16.868,0,0,0-2.164.139,16.789,16.789,0,0,1,14.61,16.62c0,5.716-2.714,11.854-8.067,18.241a59.987,59.987,0,0,1-6.543,6.649c.838.726,1.372,1.142,1.43,1.187a1.2,1.2,0,0,0,1.468,0,57.336,57.336,0,0,0,7.973-7.835c5.353-6.388,8.067-12.525,8.067-18.241A16.786,16.786,0,0,0,245.085,27.465Z" transform="translate(-204.161)" fill="#e7343f"/>
      <path id="Path_718" data-name="Path 718" d="M256.491,424.735l7.226-3.242L256,413.507V424.84h0A1.2,1.2,0,0,0,256.491,424.735Z" transform="translate(-215.152 -324.444)" fill="#ffdb56"/>
      <g id="Group_796" data-name="Group 796" transform="translate(20.925 62.083)">
        <path id="Path_719" data-name="Path 719" d="M384.638,245.96a1.2,1.2,0,0,0-.6-.833l-1.272-.707-14.652,3.267h0l21.326,24.751Z" transform="translate(-330.305 -244.42)" fill="#1ea4e9"/>
        <path id="Path_720" data-name="Path 720" d="M151.063,331.416h0v-1.2L132.71,302.346l-1.57,20.248,19.432,8.718A1.2,1.2,0,0,0,151.063,331.416Z" transform="translate(-131.14 -293.103)" fill="#1ea4e9"/>
      </g>
    </g>
  </g>
</svg>
