<svg xmlns="http://www.w3.org/2000/svg" xmlns:xlink="http://www.w3.org/1999/xlink" width="99.263" height="85" viewBox="0 0 99.263 85">
  <defs>
    <linearGradient id="linear-gradient" x1="0.291" y1="0.774" x2="1.036" y2="1.12" gradientUnits="objectBoundingBox">
      <stop offset="0" stop-color="#fef0ae"/>
      <stop offset="1" stop-color="#fac600"/>
    </linearGradient>
    <linearGradient id="linear-gradient-2" x1="0.718" y1="0.938" x2="0.929" y2="1.465" gradientUnits="objectBoundingBox">
      <stop offset="0" stop-color="#fe9738" stop-opacity="0"/>
      <stop offset="1" stop-color="#fe9738"/>
    </linearGradient>
    <linearGradient id="linear-gradient-3" x1="0.621" y1="0.945" x2="1.196" y2="1.072" xlink:href="#linear-gradient-2"/>
    <linearGradient id="linear-gradient-4" x1="0.307" y1="0.307" x2="0.761" y2="0.761" gradientUnits="objectBoundingBox">
      <stop offset="0" stop-color="#5a5a5a"/>
      <stop offset="1" stop-color="#444"/>
    </linearGradient>
    <linearGradient id="linear-gradient-5" x1="0.5" y1="0.264" x2="0.5" y2="1.141" gradientUnits="objectBoundingBox">
      <stop offset="0" stop-color="#433f43" stop-opacity="0"/>
      <stop offset="1" stop-color="#1a1a1a"/>
    </linearGradient>
    <linearGradient id="linear-gradient-6" x1="-0.969" y1="-6.053" x2="-0.969" y2="-5.403" xlink:href="#linear-gradient-5"/>
    <linearGradient id="linear-gradient-7" x1="0.9" y1="0.564" x2="0.323" y2="0.455" xlink:href="#linear-gradient-5"/>
    <linearGradient id="linear-gradient-8" x1="1.035" y1="0.648" x2="0.099" y2="0.389" xlink:href="#linear-gradient-5"/>
    <linearGradient id="linear-gradient-11" x1="-1.758" y1="-4.146" x2="-1.758" y2="-3.496" xlink:href="#linear-gradient-5"/>
    <linearGradient id="linear-gradient-14" x1="0.427" y1="0.175" x2="0.503" y2="1.037" gradientUnits="objectBoundingBox">
      <stop offset="0" stop-color="#ffa1ae"/>
      <stop offset="1" stop-color="#ff4565"/>
    </linearGradient>
    <linearGradient id="linear-gradient-15" x1="0.715" y1="-0.768" x2="0.352" y2="1.375" gradientUnits="objectBoundingBox">
      <stop offset="0" stop-color="#fe0364" stop-opacity="0"/>
      <stop offset="0.234" stop-color="#f90362" stop-opacity="0.235"/>
      <stop offset="0.517" stop-color="#ea035b" stop-opacity="0.518"/>
      <stop offset="0.824" stop-color="#d20250" stop-opacity="0.824"/>
      <stop offset="1" stop-color="#c00148"/>
    </linearGradient>
    <linearGradient id="linear-gradient-16" x1="0.5" y1="0.903" x2="0.5" y2="-0.265" xlink:href="#linear-gradient-14"/>
    <linearGradient id="linear-gradient-19" x1="0.526" y1="0.49" x2="0.746" y2="0.405" xlink:href="#linear-gradient-15"/>
    <linearGradient id="linear-gradient-20" x1="0.5" y1="0.316" x2="0.5" y2="0.821" xlink:href="#linear-gradient-15"/>
    <linearGradient id="linear-gradient-21" x1="0.5" y1="0.875" x2="0.5" y2="-0.314" xlink:href="#linear-gradient-14"/>
    <linearGradient id="linear-gradient-22" x1="0.256" y1="0.759" x2="-0.062" y2="1.052" xlink:href="#linear-gradient-15"/>
    <linearGradient id="linear-gradient-23" x1="0.366" y1="0.372" x2="1.111" y2="0.717" xlink:href="#linear-gradient"/>
    <linearGradient id="linear-gradient-24" x1="0.794" y1="0.447" x2="1.004" y2="0.974" xlink:href="#linear-gradient-2"/>
    <linearGradient id="linear-gradient-25" x1="0.707" y1="0.543" x2="1.282" y2="0.669" xlink:href="#linear-gradient-2"/>
    <linearGradient id="linear-gradient-26" x1="0.307" y1="-0.042" x2="0.563" y2="1.16" gradientUnits="objectBoundingBox">
      <stop offset="0" stop-color="#b3dafe"/>
      <stop offset="1" stop-color="#0182fc"/>
    </linearGradient>
    <linearGradient id="linear-gradient-27" x1="0.5" y1="0.331" x2="0.5" y2="-0.082" gradientUnits="objectBoundingBox">
      <stop offset="0" stop-color="#314dc9" stop-opacity="0"/>
      <stop offset="0.276" stop-color="#304bc4" stop-opacity="0.275"/>
      <stop offset="0.563" stop-color="#2b45b8" stop-opacity="0.565"/>
      <stop offset="0.854" stop-color="#243ba3" stop-opacity="0.855"/>
      <stop offset="1" stop-color="#1f3596"/>
    </linearGradient>
    <linearGradient id="linear-gradient-28" x1="0.328" y1="0.5" x2="-0.073" y2="0.5" xlink:href="#linear-gradient-27"/>
    <linearGradient id="linear-gradient-29" x1="0.444" y1="0.471" x2="0.795" y2="0.653" xlink:href="#linear-gradient-26"/>
    <linearGradient id="linear-gradient-30" x1="0.576" y1="0.555" x2="0.298" y2="0.354" xlink:href="#linear-gradient-27"/>
    <linearGradient id="linear-gradient-31" x1="0.249" y1="-0.1" x2="0.76" y2="1.172" xlink:href="#linear-gradient-26"/>
    <linearGradient id="linear-gradient-32" x1="0.451" y1="0.592" x2="0.283" y2="0.87" xlink:href="#linear-gradient-27"/>
    <linearGradient id="linear-gradient-33" x1="0.5" y1="0.543" x2="0.5" y2="-0.195" xlink:href="#linear-gradient-27"/>
    <linearGradient id="linear-gradient-34" x1="0.5" y1="0.147" x2="0.5" y2="0.94" gradientUnits="objectBoundingBox">
      <stop offset="0" stop-color="#f5fbff"/>
      <stop offset="1" stop-color="#dbd5ef"/>
    </linearGradient>
    <linearGradient id="linear-gradient-35" x1="0.5" y1="-2.596" x2="0.5" y2="1.365" gradientUnits="objectBoundingBox">
      <stop offset="0" stop-color="#dbd5ef" stop-opacity="0"/>
      <stop offset="0.285" stop-color="#d9d2ee" stop-opacity="0.286"/>
      <stop offset="0.474" stop-color="#d4c9e9" stop-opacity="0.475"/>
      <stop offset="0.635" stop-color="#cbbae2" stop-opacity="0.635"/>
      <stop offset="0.78" stop-color="#bfa5d7" stop-opacity="0.78"/>
      <stop offset="0.913" stop-color="#af8aca" stop-opacity="0.914"/>
      <stop offset="1" stop-color="#a274bf"/>
    </linearGradient>
    <linearGradient id="linear-gradient-36" x1="0.668" y1="0.5" x2="1.016" y2="0.5" xlink:href="#linear-gradient-35"/>
    <linearGradient id="linear-gradient-37" y1="0.298" y2="0.978" xlink:href="#linear-gradient-35"/>
    <linearGradient id="linear-gradient-38" x1="0.604" y1="0.5" x2="0.209" y2="0.5" xlink:href="#linear-gradient-35"/>
    <linearGradient id="linear-gradient-42" x1="-1.359" y1="-4.278" x2="-1.359" y2="-3.628" xlink:href="#linear-gradient-5"/>
    <linearGradient id="linear-gradient-43" x1="0.686" y1="0.686" x2="0.104" y2="0.104" xlink:href="#linear-gradient-5"/>
    <linearGradient id="linear-gradient-44" x1="0.307" y1="0.307" x2="0.761" y2="0.761" xlink:href="#linear-gradient-34"/>
    <linearGradient id="linear-gradient-45" y1="0.264" y2="1.141" xlink:href="#linear-gradient-35"/>
    <linearGradient id="linear-gradient-46" x1="-3.384" y1="-9.53" x2="-3.384" y2="-8.88" xlink:href="#linear-gradient-35"/>
    <linearGradient id="linear-gradient-49" x1="-0.639" y1="-6.016" x2="-0.639" y2="-5.366" xlink:href="#linear-gradient-5"/>
    <linearGradient id="linear-gradient-53" x1="-1.869" y1="-13.187" x2="-1.869" y2="-12.537" xlink:href="#linear-gradient-35"/>
    <linearGradient id="linear-gradient-54" x1="0.275" y1="0.45" x2="0.019" y2="0.312" xlink:href="#linear-gradient-15"/>
    <linearGradient id="linear-gradient-55" x1="0.126" y1="0.368" x2="0.506" y2="0.519" xlink:href="#linear-gradient-4"/>
    <linearGradient id="linear-gradient-56" y1="0.314" y2="0.841" xlink:href="#linear-gradient-5"/>
    <linearGradient id="linear-gradient-57" x1="0.252" y1="0.5" x2="0.902" y2="0.5" xlink:href="#linear-gradient-5"/>
  </defs>
  <g id="Group_1038" data-name="Group 1038" transform="translate(-754.576 -1994)">
    <g id="Ellipse_28" data-name="Ellipse 28" transform="translate(769 2005)" fill="none" stroke="#4ff570" stroke-width="5">
      <circle cx="37" cy="37" r="37" stroke="none"/>
      <circle cx="37" cy="37" r="34.5" fill="none"/>
    </g>
    <circle id="Ellipse_32" data-name="Ellipse 32" cx="33.5" cy="33.5" r="33.5" transform="translate(755.576 1994)" fill="#06054b"/>
    <g id="Group_821" data-name="Group 821" transform="translate(754.576 1877.576)">
      <g id="Group_801" data-name="Group 801" transform="translate(91.729 161.27)">
        <path id="Path_721" data-name="Path 721" d="M478.963,263.536a4.161,4.161,0,0,1-2.732,5.2c-2.126.57-4.361-7.772-2.235-8.341A4.161,4.161,0,0,1,478.963,263.536Z" transform="translate(-473.138 -260.27)" fill="url(#linear-gradient)"/>
        <path id="Path_722" data-name="Path 722" d="M476.386,275.164a4.161,4.161,0,0,0,2.732-5.2,4.6,4.6,0,0,0-.876-1.721l-4.912,1.316C473.575,272.136,475,275.534,476.386,275.164Z" transform="translate(-473.293 -266.696)" fill="url(#linear-gradient-2)"/>
        <path id="Path_723" data-name="Path 723" d="M477.242,260.4a.791.791,0,0,0-.078.026l2.232,8.332c.027,0,.054-.009.081-.016a4.332,4.332,0,0,0-2.235-8.341Z" transform="translate(-476.384 -260.27)" fill="url(#linear-gradient-3)"/>
      </g>
      <g id="Group_803" data-name="Group 803" transform="translate(21.55 162.304)">
        <g id="Group_802" data-name="Group 802">
          <circle id="Ellipse_35" data-name="Ellipse 35" cx="9.809" cy="9.809" r="9.809" fill="url(#linear-gradient-4)"/>
          <path id="Path_724" data-name="Path 724" d="M111.157,302.308a9.809,9.809,0,1,0,19.034-3.341h-18.45A9.792,9.792,0,0,0,111.157,302.308Z" transform="translate(-111.157 -292.499)" fill="url(#linear-gradient-5)"/>
          <path id="Path_725" data-name="Path 725" d="M117.872,286.191a9.809,9.809,0,1,0,11.1-15.822l-13.046,13.046A9.789,9.789,0,0,0,117.872,286.191Z" transform="translate(-114.999 -269.445)" fill="url(#linear-gradient-6)"/>
          <path id="Path_726" data-name="Path 726" d="M117.872,286.191a9.809,9.809,0,1,0,11.1-15.822l-13.046,13.046A9.789,9.789,0,0,0,117.872,286.191Z" transform="translate(-114.999 -269.445)" fill="url(#linear-gradient-7)"/>
        </g>
        <circle id="Ellipse_36" data-name="Ellipse 36" cx="6.322" cy="6.322" r="6.322" transform="translate(3.487 3.487)" fill="url(#linear-gradient-8)"/>
      </g>
      <g id="Group_805" data-name="Group 805" transform="translate(71.967 162.304)">
        <g id="Group_804" data-name="Group 804">
          <circle id="Ellipse_37" data-name="Ellipse 37" cx="9.809" cy="9.809" r="9.809" fill="url(#linear-gradient-4)"/>
          <path id="Path_727" data-name="Path 727" d="M371.208,302.308a9.809,9.809,0,1,0,19.034-3.341h-18.45A9.792,9.792,0,0,0,371.208,302.308Z" transform="translate(-371.208 -292.499)" fill="url(#linear-gradient-5)"/>
          <path id="Path_728" data-name="Path 728" d="M377.923,286.191a9.809,9.809,0,1,0,11.1-15.822l-13.046,13.046A9.788,9.788,0,0,0,377.923,286.191Z" transform="translate(-375.05 -269.445)" fill="url(#linear-gradient-11)"/>
          <path id="Path_729" data-name="Path 729" d="M377.923,286.191a9.809,9.809,0,1,0,11.1-15.822l-13.046,13.046A9.788,9.788,0,0,0,377.923,286.191Z" transform="translate(-375.05 -269.445)" fill="url(#linear-gradient-7)"/>
        </g>
        <circle id="Ellipse_38" data-name="Ellipse 38" cx="6.322" cy="6.322" r="6.322" transform="translate(3.487 3.487)" fill="url(#linear-gradient-8)"/>
      </g>
      <g id="Group_807" data-name="Group 807" transform="translate(0.357 137.461)">
        <path id="Path_730" data-name="Path 730" d="M98.852,173.544H1.84l3.038-13.63A5.881,5.881,0,0,1,9.8,155.441l2.591-.464.046-.008a6.678,6.678,0,0,0,4.513-3.232c2.192-3.748,9.738-14.275,16.843-14.275H57.68a16.883,16.883,0,0,1,13.08,5.9c.541.664,1.082,1.325,1.655,1.962,2.419,2.7,8.062,8.733,10.73,9.424L89.6,156.53a8.45,8.45,0,0,1,5.836,5.7Z" transform="translate(-1.84 -137.461)" fill="url(#linear-gradient-14)"/>
        <path id="Path_731" data-name="Path 731" d="M268.341,162.232a8.449,8.449,0,0,0-5.836-5.7l-6.457-1.787c-2.668-.692-8.311-6.723-10.73-9.424-.573-.637-1.114-1.3-1.655-1.962a16.883,16.883,0,0,0-13.08-5.9H216.325a16.883,16.883,0,0,1,13.08,5.9c.541.664,1.082,1.325,1.655,1.962,2.419,2.7,8.062,8.733,10.73,9.424l6.457,1.787a8.45,8.45,0,0,1,5.836,5.7l3.413,11.311h14.257Z" transform="translate(-174.742 -137.461)" fill="url(#linear-gradient-15)"/>
        <g id="Group_806" data-name="Group 806" transform="translate(83.467 22.504)">
          <path id="Path_732" data-name="Path 732" d="M439.578,255.476h-6.243a.97.97,0,1,1,0-1.939h6.243a.97.97,0,1,1,0,1.939Z" transform="translate(-432.366 -253.537)" fill="url(#linear-gradient-16)"/>
          <path id="Path_733" data-name="Path 733" d="M445.045,270.18H438.8a.97.97,0,1,1,0-1.939h6.243a.97.97,0,1,1,0,1.939Z" transform="translate(-436.772 -265.39)" fill="url(#linear-gradient-16)"/>
          <path id="Path_734" data-name="Path 734" d="M450.509,284.885h-6.243a.97.97,0,0,1,0-1.939h6.243a.97.97,0,1,1,0,1.939Z" transform="translate(-441.178 -277.244)" fill="url(#linear-gradient-16)"/>
        </g>
        <path id="Path_735" data-name="Path 735" d="M355.633,164.6l-6.457-1.787c-2.668-.692-8.311-6.723-10.73-9.424-.573-.637-1.114-1.3-1.655-1.962a15.52,15.52,0,0,0-4.94-3.955v13.485a9.657,9.657,0,0,0,3.068,1.856l6.457,1.787a8.45,8.45,0,0,1,5.836,5.7l3.413,11.311h14.257L361.469,170.3A8.45,8.45,0,0,0,355.633,164.6Z" transform="translate(-267.871 -145.531)" fill="url(#linear-gradient-19)"/>
        <path id="Path_736" data-name="Path 736" d="M4.878,234.929,1.84,248.559H98.852l-3.413-11.311a8.449,8.449,0,0,0-5.836-5.7l-3.713-1.028H9.509a5.832,5.832,0,0,0-4.631,4.411Z" transform="translate(-1.84 -212.477)" fill="url(#linear-gradient-20)"/>
        <path id="Path_737" data-name="Path 737" d="M184.1,242.94h-2.856a1.474,1.474,0,1,1,0-2.948H184.1a1.474,1.474,0,1,1,0,2.948Z" transform="translate(-145.276 -220.114)" fill="url(#linear-gradient-21)"/>
        <path id="Path_738" data-name="Path 738" d="M150.091,170.667l2.876,2.876h58.289l-3.413-11.311a8.449,8.449,0,0,0-5.836-5.7l-6.457-1.787c-2.668-.692-8.311-6.723-10.73-9.424-.572-.637-1.114-1.3-1.655-1.962a16.883,16.883,0,0,0-13.08-5.9H146.192a16.933,16.933,0,0,0-4.915,11.928A30.092,30.092,0,0,0,150.091,170.667Z" transform="translate(-114.244 -137.461)" fill="url(#linear-gradient-22)"/>
      </g>
      <g id="Group_808" data-name="Group 808" transform="translate(78.53 161.27)">
        <path id="Path_739" data-name="Path 739" d="M410.884,263.536a4.161,4.161,0,0,1-2.731,5.2c-2.126.57-4.361-7.772-2.235-8.341A4.161,4.161,0,0,1,410.884,263.536Z" transform="translate(-405.059 -260.27)" fill="url(#linear-gradient-23)"/>
        <path id="Path_740" data-name="Path 740" d="M408.307,275.164a4.161,4.161,0,0,0,2.731-5.2,4.6,4.6,0,0,0-.876-1.721l-4.912,1.316C405.5,272.136,406.925,275.534,408.307,275.164Z" transform="translate(-405.214 -266.696)" fill="url(#linear-gradient-24)"/>
        <path id="Path_741" data-name="Path 741" d="M409.162,260.4a.8.8,0,0,0-.078.026l2.232,8.332c.027,0,.054-.009.08-.016a4.332,4.332,0,0,0-2.235-8.341Z" transform="translate(-408.304 -260.27)" fill="url(#linear-gradient-25)"/>
      </g>
      <g id="Group_809" data-name="Group 809" transform="translate(30.743 140.463)">
        <path id="Path_742" data-name="Path 742" d="M188.049,167.592H162.324a3.753,3.753,0,0,1-3.753-3.753V156.7a3.753,3.753,0,0,1,3.753-3.753h7.8a13.52,13.52,0,0,1,10.466,4.66c.51.626,1.091,1.336,1.711,2.03a83.643,83.643,0,0,0,6.326,6.443A.866.866,0,0,1,188.049,167.592Z" transform="translate(-158.571 -152.948)" fill="url(#linear-gradient-26)"/>
        <path id="Path_743" data-name="Path 743" d="M188.049,167.592H162.324a3.753,3.753,0,0,1-3.753-3.753V156.7a3.753,3.753,0,0,1,3.753-3.753h7.8a13.52,13.52,0,0,1,10.466,4.66c.51.626,1.091,1.336,1.711,2.03a83.643,83.643,0,0,0,6.326,6.443A.866.866,0,0,1,188.049,167.592Z" transform="translate(-158.571 -152.948)" fill="url(#linear-gradient-27)"/>
        <path id="Path_744" data-name="Path 744" d="M171.494,153.015c-.452-.042-.908-.067-1.369-.067h-7.8a3.753,3.753,0,0,0-3.753,3.753v7.137a3.753,3.753,0,0,0,3.753,3.753h9.169Z" transform="translate(-158.571 -152.948)" fill="url(#linear-gradient-28)"/>
      </g>
      <g id="Group_810" data-name="Group 810" transform="translate(15.561 140.903)">
        <path id="Path_745" data-name="Path 745" d="M93.371,157.251A16.955,16.955,0,0,0,92.1,163.7a30.038,30.038,0,0,0,.368,4.694.868.868,0,0,1-.856,1.006H81.134a.863.863,0,0,1-.7-1.365q.273-.381.516-.791c2.485-4.253,7.48-10.232,11.672-11.963a.867.867,0,0,1,1.107,1.172Q93.538,156.848,93.371,157.251Z" transform="translate(-80.266 -155.215)" fill="url(#linear-gradient-29)"/>
      </g>
      <g id="Group_811" data-name="Group 811" transform="translate(15.561 140.903)">
        <path id="Path_746" data-name="Path 746" d="M93.371,157.251A16.955,16.955,0,0,0,92.1,163.7a30.038,30.038,0,0,0,.368,4.694.868.868,0,0,1-.856,1.006H81.134a.863.863,0,0,1-.7-1.365q.273-.381.516-.791c2.485-4.253,7.48-10.232,11.672-11.963a.867.867,0,0,1,1.107,1.172Q93.538,156.848,93.371,157.251Z" transform="translate(-80.266 -155.215)" fill="url(#linear-gradient-30)"/>
      </g>
      <g id="Group_812" data-name="Group 812" transform="translate(54.995 140.463)">
        <path id="Path_747" data-name="Path 747" d="M311.651,167.59H300.832a3.074,3.074,0,0,1-1.163-.238,26.648,26.648,0,0,1-8.895-5.97c-1.328-1.351-2.528-2.659-3.352-3.58-.574-.638-1.115-1.3-1.656-1.962a14.77,14.77,0,0,0-1.908-1.937.542.542,0,0,1,.347-.957H293.5a4.476,4.476,0,0,1,2.726.925,24.68,24.68,0,0,1,3.765,3.932c2.42,2.7,7.673,8.538,10.341,9.23Z" transform="translate(-283.664 -152.945)" fill="url(#linear-gradient-31)"/>
        <path id="Path_748" data-name="Path 748" d="M311.651,167.59H300.832a3.074,3.074,0,0,1-1.163-.238,26.648,26.648,0,0,1-8.895-5.97c-1.328-1.351-2.528-2.659-3.352-3.58-.574-.638-1.115-1.3-1.656-1.962a14.77,14.77,0,0,0-1.908-1.937.542.542,0,0,1,.347-.957H293.5a4.476,4.476,0,0,1,2.726.925,24.68,24.68,0,0,1,3.765,3.932c2.42,2.7,7.673,8.538,10.341,9.23Z" transform="translate(-283.664 -152.945)" fill="url(#linear-gradient-32)"/>
        <path id="Path_749" data-name="Path 749" d="M299.989,157.8a24.676,24.676,0,0,0-3.765-3.932,4.476,4.476,0,0,0-2.726-.925h-9.292a.542.542,0,0,0-.347.957,14.794,14.794,0,0,1,1.908,1.937c.541.663,1.082,1.324,1.656,1.962.594.663,1.384,1.529,2.276,2.466h12.536c-.868-.931-1.644-1.8-2.245-2.466Z" transform="translate(-283.664 -152.945)" fill="url(#linear-gradient-33)"/>
      </g>
      <g id="Group_813" data-name="Group 813" transform="translate(0 168.785)">
        <path id="Path_750" data-name="Path 750" d="M96.958,306.385H2.306A2.305,2.305,0,0,1,0,304.08v-2.744a2.305,2.305,0,0,1,2.306-2.306H96.958a2.305,2.305,0,0,1,2.306,2.306v2.744a2.306,2.306,0,0,1-2.306,2.306Z" transform="translate(0 -299.03)" fill="url(#linear-gradient-34)"/>
        <path id="Path_751" data-name="Path 751" d="M426.42,299.03H408.7A2.305,2.305,0,0,1,411,301.335v2.744a2.306,2.306,0,0,1-2.306,2.306H426.42a2.306,2.306,0,0,0,2.306-2.306v-2.744A2.305,2.305,0,0,0,426.42,299.03Z" transform="translate(-329.462 -299.03)" fill="url(#linear-gradient-35)"/>
        <path id="Path_752" data-name="Path 752" d="M426.42,299.03H408.7A2.305,2.305,0,0,1,411,301.335v2.744a2.306,2.306,0,0,1-2.306,2.306H426.42a2.306,2.306,0,0,0,2.306-2.306v-2.744A2.305,2.305,0,0,0,426.42,299.03Z" transform="translate(-329.462 -299.03)" fill="url(#linear-gradient-36)"/>
        <path id="Path_753" data-name="Path 753" d="M96.958,306.385H2.306A2.305,2.305,0,0,1,0,304.08v-2.744a2.305,2.305,0,0,1,2.306-2.306H96.958a2.305,2.305,0,0,1,2.306,2.306v2.744a2.306,2.306,0,0,1-2.306,2.306Z" transform="translate(0 -299.03)" fill="url(#linear-gradient-37)"/>
        <path id="Path_754" data-name="Path 754" d="M108.385,299.03h22.652v7.355H108.385Z" transform="translate(-87.372 -299.03)" fill="url(#linear-gradient-38)"/>
        <path id="Path_755" data-name="Path 755" d="M369.6,299.03h22.652v7.355H369.6Z" transform="translate(-297.944 -299.03)" fill="url(#linear-gradient-38)"/>
      </g>
      <g id="Group_816" data-name="Group 816" transform="translate(55.555 161.904)">
        <g id="Group_814" data-name="Group 814" transform="translate(0 0)">
          <circle id="Ellipse_39" data-name="Ellipse 39" cx="10.76" cy="10.76" r="10.76" transform="translate(0)" fill="url(#linear-gradient-4)"/>
          <path id="Path_756" data-name="Path 756" d="M286.551,303.8a10.76,10.76,0,1,0,20.879-3.665H287.192A10.734,10.734,0,0,0,286.551,303.8Z" transform="translate(-286.551 -293.041)" fill="url(#linear-gradient-5)"/>
          <path id="Path_757" data-name="Path 757" d="M293.916,286.121a10.76,10.76,0,1,0,12.172-17.355l-14.31,14.31A10.738,10.738,0,0,0,293.916,286.121Z" transform="translate(-290.765 -267.753)" fill="url(#linear-gradient-42)"/>
        </g>
        <circle id="Ellipse_40" data-name="Ellipse 40" cx="6.935" cy="6.935" r="6.935" transform="translate(3.825 3.825)" fill="url(#linear-gradient-43)"/>
        <g id="Group_815" data-name="Group 815" transform="translate(5.645 5.645)">
          <circle id="Ellipse_41" data-name="Ellipse 41" cx="5.115" cy="5.115" r="5.115" fill="url(#linear-gradient-44)"/>
          <path id="Path_758" data-name="Path 758" d="M315.666,311.794a5.115,5.115,0,1,0,9.926-1.742h-9.621a5.106,5.106,0,0,0-.3,1.742Z" transform="translate(-315.666 -306.679)" fill="url(#linear-gradient-45)"/>
          <path id="Path_759" data-name="Path 759" d="M319.168,303.39a5.115,5.115,0,1,0,5.787-8.251l-6.8,6.8A5.106,5.106,0,0,0,319.168,303.39Z" transform="translate(-317.669 -294.657)" fill="url(#linear-gradient-46)"/>
        </g>
      </g>
      <g id="Group_819" data-name="Group 819" transform="translate(5.138 161.904)">
        <g id="Group_817" data-name="Group 817" transform="translate(0 0)">
          <circle id="Ellipse_42" data-name="Ellipse 42" cx="10.76" cy="10.76" r="10.76" transform="translate(0)" fill="url(#linear-gradient-4)"/>
          <path id="Path_760" data-name="Path 760" d="M26.5,303.8a10.76,10.76,0,1,0,20.879-3.665H27.141A10.735,10.735,0,0,0,26.5,303.8Z" transform="translate(-26.5 -293.041)" fill="url(#linear-gradient-5)"/>
          <path id="Path_761" data-name="Path 761" d="M33.865,286.121a10.76,10.76,0,1,0,12.172-17.355l-14.31,14.31A10.738,10.738,0,0,0,33.865,286.121Z" transform="translate(-30.714 -267.753)" fill="url(#linear-gradient-49)"/>
        </g>
        <circle id="Ellipse_43" data-name="Ellipse 43" cx="6.935" cy="6.935" r="6.935" transform="translate(3.825 3.825)" fill="url(#linear-gradient-43)"/>
        <g id="Group_818" data-name="Group 818" transform="translate(5.644 5.645)">
          <circle id="Ellipse_44" data-name="Ellipse 44" cx="5.115" cy="5.115" r="5.115" transform="translate(0)" fill="url(#linear-gradient-44)"/>
          <path id="Path_762" data-name="Path 762" d="M55.614,311.794a5.115,5.115,0,1,0,9.926-1.742H55.919A5.1,5.1,0,0,0,55.614,311.794Z" transform="translate(-55.614 -306.679)" fill="url(#linear-gradient-45)"/>
          <path id="Path_763" data-name="Path 763" d="M59.116,303.39a5.115,5.115,0,1,0,5.787-8.251l-6.8,6.8a5.105,5.105,0,0,0,1.016,1.447Z" transform="translate(-57.618 -294.657)" fill="url(#linear-gradient-53)"/>
        </g>
      </g>
      <path id="Path_764" data-name="Path 764" d="M306.338,203.5l-3.395,7.146,16.133,16.133h10.54Z" transform="translate(-244.21 -53.237)" fill="url(#linear-gradient-54)"/>
      <g id="Group_820" data-name="Group 820" transform="translate(58.055 149.448)">
        <path id="Path_765" data-name="Path 765" d="M301.578,199.29a2.13,2.13,0,0,0-2.13,2.13V205.7a2.13,2.13,0,0,0,2.13,2.13,2.719,2.719,0,0,0,2.719-2.719v-3.1A2.719,2.719,0,0,0,301.578,199.29Z" transform="translate(-299.448 -199.29)" fill="url(#linear-gradient-55)"/>
        <path id="Path_766" data-name="Path 766" d="M299.448,218.1v2.758a2.13,2.13,0,0,0,2.13,2.13,2.719,2.719,0,0,0,2.719-2.719V218.1Z" transform="translate(-299.448 -214.453)" fill="url(#linear-gradient-56)"/>
        <path id="Path_767" data-name="Path 767" d="M307.3,199.29a2.122,2.122,0,0,0-.754.14v8.255a2.122,2.122,0,0,0,.754.14,2.719,2.719,0,0,0,2.719-2.719v-3.1A2.719,2.719,0,0,0,307.3,199.29Z" transform="translate(-305.168 -199.29)" fill="url(#linear-gradient-57)"/>
      </g>
    </g>
  </g>
</svg>
