<svg xmlns="http://www.w3.org/2000/svg" width="87.424" height="85" viewBox="0 0 87.424 85">
  <g id="Group_1040" data-name="Group 1040" transform="translate(-264.576 -1994)">
    <g id="Ellipse_30" data-name="Ellipse 30" transform="translate(278 2005)" fill="none" stroke="#4ff570" stroke-width="5">
      <circle cx="37" cy="37" r="37" stroke="none"/>
      <circle cx="37" cy="37" r="34.5" fill="none"/>
    </g>
    <circle id="Ellipse_34" data-name="Ellipse 34" cx="33.5" cy="33.5" r="33.5" transform="translate(264.576 1994)" fill="#06054b"/>
    <g id="Group_825" data-name="Group 825" transform="translate(258.578 1994)">
      <g id="Group_824" data-name="Group 824" transform="translate(22.704 0)">
        <path id="Path_778" data-name="Path 778" d="M28.363,58.448a5.659,5.659,0,1,0,0,11.318v6.656a5.659,5.659,0,0,0,0,11.318,5.659,5.659,0,0,0,0,11.318Z" transform="translate(-22.704 -50.001)" fill="#ffcbbe"/>
        <path id="Path_779" data-name="Path 779" d="M144.13,166.062a24.045,24.045,0,0,1-3.52,6.4h0c-6.362,8.34-18.065,13.208-28.7,9.591-8.493-2.888-13.413-13.665-13.413-13.665s-1.321-6.271-6.544-8.912a11.025,11.025,0,0,0-5.06-1.152l39.841-25.87a6.229,6.229,0,1,1,12.09,3,14.314,14.314,0,0,0,1.642,10.9S147.515,156.674,144.13,166.062Z" transform="translate(-77.612 -109.263)" fill="#ffddce"/>
        <path id="Path_780" data-name="Path 780" d="M170.556,342.525c-6.362,8.34-18.065,13.208-28.7,9.591-8.493-2.888-13.413-13.665-13.413-13.665s-1.321-6.271-6.544-8.912l1.339-3.02,30.549.228C150.822,334.727,156.776,345.537,170.556,342.525Z" transform="translate(-107.561 -279.327)" fill="#ffcbbe"/>
        <path id="Path_781" data-name="Path 781" d="M95.3,63.806a151.481,151.481,0,0,1-31.975,0,7.885,7.885,0,0,1-7.046-7.335,378.645,378.645,0,0,1,0-48.29A7.885,7.885,0,0,1,63.321.846,151.481,151.481,0,0,1,95.3.846a7.885,7.885,0,0,1,7.046,7.335,378.646,378.646,0,0,1,0,48.29A7.885,7.885,0,0,1,95.3,63.806Z" transform="translate(-50.764 0)" fill="#26457d"/>
        <path id="Path_782" data-name="Path 782" d="M62.332,69.508a7.881,7.881,0,0,1-6.175-7.194,378.685,378.685,0,0,1,0-48.289A7.881,7.881,0,0,1,62.332,6.83,8.286,8.286,0,0,0,59.339,12.7a399.464,399.464,0,0,0,0,50.945A8.288,8.288,0,0,0,62.332,69.508Z" transform="translate(-50.663 -5.843)" fill="#21386b"/>
        <path id="Path_783" data-name="Path 783" d="M122.582,87.612a6.532,6.532,0,0,1-5.836,6.076,125.526,125.526,0,0,1-26.485,0,6.532,6.532,0,0,1-5.837-6.076,313.755,313.755,0,0,1,0-40,6.532,6.532,0,0,1,5.837-6.076q1.549-.164,3.1-.289a3.513,3.513,0,0,0,3.034,2.619,67.5,67.5,0,0,0,14.222,0,3.513,3.513,0,0,0,3.034-2.619q1.549.125,3.1.289a6.532,6.532,0,0,1,5.836,6.076A313.279,313.279,0,0,1,122.582,87.612Z" transform="translate(-74.958 -35.287)" fill="#78d0b1"/>
        <path id="Path_784" data-name="Path 784" d="M189.978,25.11h-9.6a1.117,1.117,0,1,1,0-2.233h9.6a1.117,1.117,0,1,1,0,2.233Z" transform="translate(-156.631 -19.571)" fill="#21386b"/>
        <path id="Path_785" data-name="Path 785" d="M362.68,156.114c-5.857-7.175-6.645-16.7-4.916-23.661a6.229,6.229,0,0,1,12.09,3,14.312,14.312,0,0,0,1.642,10.9Z" transform="translate(-308.646 -109.264)" fill="#ffddce"/>
        <path id="Path_786" data-name="Path 786" d="M362.68,156.112c-5.857-7.175-6.645-16.7-4.916-23.661a6.227,6.227,0,0,1,7.545-4.545c.176.045.35.094.519.152a6.213,6.213,0,0,0-4.028,4.393,28.681,28.681,0,0,0,1.683,18.474A4.766,4.766,0,0,1,362.68,156.112Z" transform="translate(-308.647 -109.262)" fill="#ffcbbe"/>
      </g>
      <path id="Path_787" data-name="Path 787" d="M155.46,171.524,149.7,161.89a1.958,1.958,0,0,1,.676-2.686l2.905-1.737a1.958,1.958,0,0,1,2.686.676l2.922,4.889,6-12.11a1.958,1.958,0,0,1,2.624-.885l3.033,1.5a1.958,1.958,0,0,1,.885,2.624l-8.458,17.063a1.959,1.959,0,0,1-1.678,1.087l-4.082.16a1.958,1.958,0,0,1-1.757-.952Z" transform="translate(-108.404 -128.178)" fill="#f1f4f6"/>
    </g>
  </g>
</svg>
