<svg xmlns="http://www.w3.org/2000/svg" xmlns:xlink="http://www.w3.org/1999/xlink" width="100.371" height="31.489" viewBox="0 0 100.371 31.489">
  <defs>
    <clipPath id="clip-path">
      <rect id="Rectangle_6" data-name="Rectangle 6" width="100.371" height="31.489" fill="none"/>
    </clipPath>
  </defs>
  <g id="Group_2" data-name="Group 2" transform="translate(0 0)">
    <g id="Group_1" data-name="Group 1" transform="translate(0 0)" clip-path="url(#clip-path)">
      <path id="Path_1" data-name="Path 1" d="M183.18,22.2a6.889,6.889,0,0,0-5.509-2.364,10.3,10.3,0,0,0-6.543,2.4,10.482,10.482,0,0,0-3.811,6.184,7.035,7.035,0,0,0,1.186,6.142,6.71,6.71,0,0,0,5.571,2.443A10.874,10.874,0,0,0,184.4,28.421a6.984,6.984,0,0,0-1.219-6.22m-5.472,8.831a3.873,3.873,0,0,1-2.591,1,2.574,2.574,0,0,1-2.178-1,3.026,3.026,0,0,1-.44-2.6,4.7,4.7,0,0,1,1.519-2.643,3.8,3.8,0,0,1,2.62-1.008,2.545,2.545,0,0,1,2.149,1,3.083,3.083,0,0,1,.431,2.648,4.5,4.5,0,0,1-1.51,2.61" transform="translate(-118.505 -14.067)" fill="#4f45e8"/>
      <path id="Path_2" data-name="Path 2" d="M30.042,0,26.331,17.713h5.625L35.668,0Z" transform="translate(-18.674 0)" fill="#4f45e8"/>
      <path id="Path_3" data-name="Path 3" d="M2.622,29.952,0,42.466H5.625L8.247,29.952Z" transform="translate(0 -21.242)" fill="#4ff570"/>
      <path id="Path_4" data-name="Path 4" d="M51.135,18.034,47.424,35.747h5.625L56.76,18.034Z" transform="translate(-33.633 -12.789)" fill="#06054b"/>
      <path id="Path_5" data-name="Path 5" d="M227.005,22.807,231.3,2.3h-2.9l.481-2.3H236.4a23.018,23.018,0,0,1,4.708.377,3.59,3.59,0,0,1,2.229,1.846,5.017,5.017,0,0,1,.409,3.509,7.2,7.2,0,0,1-1.273,2.807,5,5,0,0,1-1.959,1.656l-1.169.5,1.019.4a3.8,3.8,0,0,1,2.046,2,5.246,5.246,0,0,1,.3,3.379,7.29,7.29,0,0,1-1.371,2.981,7.777,7.777,0,0,1-2.4,2.064,9.783,9.783,0,0,1-2.927,1.015,28.1,28.1,0,0,1-4.254.279Zm3.368-2.3h1.666a21.235,21.235,0,0,0,3.931-.263,4.79,4.79,0,0,0,2.453-1.355,5.073,5.073,0,0,0,1.389-2.676,3.529,3.529,0,0,0-.268-2.505,2.8,2.8,0,0,0-1.78-1.353,12.569,12.569,0,0,0-3.261-.32h-2.357Zm2.249-10.736h2.526a6.441,6.441,0,0,0,3.974-.988,4.613,4.613,0,0,0,1.7-2.853c.63-3.007-1.885-3.638-4.106-3.638h-2.526Z" transform="translate(-160.989 0)" fill="#06054b"/>
      <path id="Path_6" data-name="Path 6" d="M286.783,47.466l4.43-7.267-2.658-13.513h-2.622l.467-2.229h4.473l2.275,12.476L299.2,26.686h-2.309l.467-2.229h5.8L289.405,47.466Z" transform="translate(-202.781 -17.344)" fill="#06054b"/>
      <path id="Path_7" data-name="Path 7" d="M99.692,17.96a4.625,4.625,0,0,1-3.914-1.8,5.436,5.436,0,0,1-.791-4.679A8.436,8.436,0,0,1,97.716,6.73a6.827,6.827,0,0,1,4.708-1.811,4.571,4.571,0,0,1,3.861,1.8,4.479,4.479,0,0,1,.792,1.611h5.65a8.284,8.284,0,0,0-1.92-5.173A9.2,9.2,0,0,0,103.449,0a13.763,13.763,0,0,0-8.741,3.207,14,14,0,0,0-5.092,8.262c-.691,3.3-.155,6.06,1.584,8.2a8.964,8.964,0,0,0,7.443,3.264,13.882,13.882,0,0,0,8.7-3.206l-3.63-3.088a6.063,6.063,0,0,1-4.023,1.317" transform="translate(-63.347 0)" fill="#4f45e8"/>
      <path id="Path_8" data-name="Path 8" d="M129.243,40.177l6.412,8.048a13.985,13.985,0,0,0,4.488-6.161Z" transform="translate(-91.658 -28.493)" fill="#4ff570"/>
      <path id="Path_9" data-name="Path 9" d="M96.806,90.692H96a.185.185,0,0,1-.134-.058.182.182,0,0,1-.058-.13v-.426a.192.192,0,0,1,.058-.137A.181.181,0,0,1,96,89.886h1.359v-.745H96a.9.9,0,0,0-.662.268.911.911,0,0,0-.275.669V90.5a.938.938,0,0,0,.937.934h.807a.181.181,0,0,1,.134.055.183.183,0,0,1,.055.137v.7a.181.181,0,0,1-.055.134.185.185,0,0,1-.134.058H94.259q-.273,0-.329-.062a.183.183,0,0,1-.055-.137v-2.09H93.13v2.09a.864.864,0,0,0,.271.659.949.949,0,0,0,.484.275l.268.01h2.653a.937.937,0,0,0,.937-.937v-.7a.911.911,0,0,0-.275-.669.9.9,0,0,0-.662-.268" transform="translate(-66.047 -63.218)" fill="#06054b"/>
      <rect id="Rectangle_1" data-name="Rectangle 1" width="0.748" height="0.745" transform="translate(28.411 30.643)" fill="#06054b"/>
      <rect id="Rectangle_2" data-name="Rectangle 2" width="0.745" height="0.745" transform="translate(29.537 30.643)" fill="#06054b"/>
      <rect id="Rectangle_3" data-name="Rectangle 3" width="0.748" height="0.745" transform="translate(53.74 30.622)" fill="#06054b"/>
      <path id="Path_10" data-name="Path 10" d="M133.545,86.007v3.158a.181.181,0,0,1-.055.134.185.185,0,0,1-.134.058H113.292v0h-.467a.188.188,0,0,1-.189-.189V84.679h-.745v4.486a.948.948,0,0,0,.062.343.876.876,0,0,0,.175.288.768.768,0,0,0,.268.2,1.1,1.1,0,0,0,.336.1h20.716a1.1,1.1,0,0,0,.336-.1.768.768,0,0,0,.268-.2.882.882,0,0,0,.175-.288.954.954,0,0,0,.062-.343V86.007Z" transform="translate(-79.353 -60.053)" fill="#06054b"/>
      <rect id="Rectangle_4" data-name="Rectangle 4" width="0.996" height="0.996" transform="translate(79.55 24.51)" fill="#4f45e8"/>
      <rect id="Rectangle_5" data-name="Rectangle 5" width="0.999" height="0.996" transform="translate(78.242 24.51)" fill="#4f45e8"/>
      <path id="Path_11" data-name="Path 11" d="M218.552,89.02a1.013,1.013,0,0,0-.749-.312h-.563a1.037,1.037,0,0,0-.758.311,1.026,1.026,0,0,0-.3.751v1.122a.9.9,0,0,0,.26.662,1.07,1.07,0,0,0,.792.256h.633v.2a.056.056,0,0,1-.018.045.078.078,0,0,1-.045.025H197.516V89.76a1.063,1.063,0,0,0-1.059-1.063h-.563a1.035,1.035,0,0,0-.758.311,1.024,1.024,0,0,0-.3.751v2.248a1.04,1.04,0,0,0,1.062,1.063l.626,0v.257a.062.062,0,0,1-.063.063H195.02v1h1.548a1.216,1.216,0,0,0,.373-.114.9.9,0,0,0,.306-.231,1,1,0,0,0,.2-.328,1.068,1.068,0,0,0,.07-.389v-.252H217.8a1.057,1.057,0,0,0,1.061-1.066V89.77a1.014,1.014,0,0,0-.311-.75M196.52,92.008a.055.055,0,0,1-.018.045.056.056,0,0,1-.045.018h-.563a.056.056,0,0,1-.045-.018.059.059,0,0,1-.022-.045V89.76a.059.059,0,0,1,.022-.045.056.056,0,0,1,.045-.018h.563a.056.056,0,0,1,.045.018.055.055,0,0,1,.018.045Zm21.346-1.052h-.637c-.006,0-.017,0-.035-.018a.059.059,0,0,1-.022-.045V89.77a.068.068,0,0,1,.022-.049.056.056,0,0,1,.045-.018h.563a.057.057,0,0,1,.045.018.06.06,0,0,1,.018.049Z" transform="translate(-138.173 -62.903)" fill="#4f45e8"/>
    </g>
  </g>
</svg>
